<svg xmlns="http://www.w3.org/2000/svg" viewBox="0 0 99.92 131.85"><defs><style>.cls-1,.cls-2{fill:#00a4e6;}.cls-1{stroke:#00a4e6;stroke-miterlimit:10;stroke-width:4px;}.cls-3{fill:#fff;}</style></defs><title>accstat</title><g id="Layer_2" data-name="Layer 2"><g id="Layer_1-2" data-name="Layer 1"><path class="cls-1" d="M75.83,2C81.53,7.81,87,13.85,93,19.36c3.58,3.3,5,6.75,4.93,11.65-.21,32.95-.11,65.89-.11,98.84H2V2ZM10.27,10.23V121.62H89.52V33.8H65.73V10.23Zm76,15.49L74.08,13.33V25.73Z"/><path class="cls-2" d="M86.29,25.73H74.08V13.33Z"/><path class="cls-2" d="M81.61,50.29v7.39H18.12V50.29Z"/><path class="cls-2" d="M18.12,73.58v-7.4H81.62v7.4Z"/><path class="cls-2" d="M18.21,90V82.6H81.71V90Z"/><path class="cls-2" d="M65.63,98.6V106H18.12V98.6Z"/><polyline class="cls-3" points="86.65 24.9 74.08 24.9 74.08 12.33"/></g></g></svg>