<svg xmlns="http://www.w3.org/2000/svg" xmlns:xlink="http://www.w3.org/1999/xlink" viewBox="0 0 145.72 145.72"><defs><linearGradient id="linear-gradient" y1="63.36" x2="126.72" y2="63.36" gradientUnits="userSpaceOnUse"><stop offset="0" stop-color="#fff"/><stop offset="1" stop-color="#d1d3d4"/></linearGradient><linearGradient id="linear-gradient-2" x1="3.168" y1="63.36" x2="123.552" y2="63.36" gradientUnits="userSpaceOnUse"><stop offset="0" stop-color="#d1d3d4"/><stop offset="1" stop-color="#fff"/></linearGradient><linearGradient id="linear-gradient-3" x1="110.88" y1="63.36" x2="15.84" y2="63.36" gradientUnits="userSpaceOnUse"><stop offset="0" stop-color="#00577f"/><stop offset="1" stop-color="#0082bf"/></linearGradient><linearGradient id="linear-gradient-4" x1="23.76" y1="63.36" x2="102.96" y2="63.36" xlink:href="#linear-gradient-3"/></defs><title>brightnes clicked</title><g style="isolation:isolate"><g id="Layer_2" data-name="Layer 2"><g id="symbol_buttons" data-name="symbol buttons"><g style="mix-blend-mode:multiply"><path d="M82.36,145.72a63.36,63.36,0,1,1,63.36-63.36A63.432,63.432,0,0,1,82.36,145.72Z" fill="#fff" opacity="0"/><path d="M81.455,144.778a63.322,63.322,0,1,1,63.322-63.322A63.394,63.394,0,0,1,81.455,144.778Z" fill="#f9f9f9" opacity="0.048"/><path d="M80.55,143.835A63.285,63.285,0,1,1,143.835,80.55,63.356,63.356,0,0,1,80.55,143.835Z" fill="#f3f3f3" opacity="0.095"/><path d="M79.646,142.893a63.247,63.247,0,1,1,63.247-63.247A63.318,63.318,0,0,1,79.646,142.893Z" fill="#ededee" opacity="0.143"/><path d="M78.741,141.95A63.209,63.209,0,1,1,141.95,78.741,63.281,63.281,0,0,1,78.741,141.95Z" fill="#e7e7e8" opacity="0.19"/><path d="M77.836,141.008a63.171,63.171,0,1,1,63.171-63.171A63.243,63.243,0,0,1,77.836,141.008Z" fill="#e1e1e2" opacity="0.238"/><path d="M76.931,140.065a63.134,63.134,0,1,1,63.134-63.134A63.205,63.205,0,0,1,76.931,140.065Z" fill="#dbdbdc" opacity="0.286"/><path d="M76.027,139.123a63.1,63.1,0,1,1,63.1-63.1A63.167,63.167,0,0,1,76.027,139.123Z" fill="#d5d5d6" opacity="0.333"/><path d="M75.122,138.18A63.058,63.058,0,1,1,138.18,75.122,63.13,63.13,0,0,1,75.122,138.18Z" fill="#cfcfd1" opacity="0.381"/><path d="M74.217,137.238a63.021,63.021,0,1,1,63.021-63.021A63.092,63.092,0,0,1,74.217,137.238Z" fill="#c9c9cb" opacity="0.429"/><path d="M73.312,136.3A62.983,62.983,0,1,1,136.3,73.312,63.054,63.054,0,0,1,73.312,136.3Z" fill="#c3c3c5" opacity="0.476"/><path d="M72.408,135.353a62.945,62.945,0,1,1,62.945-62.945A63.016,63.016,0,0,1,72.408,135.353Z" fill="#bcbebf" opacity="0.524"/><path d="M71.5,134.41A62.907,62.907,0,1,1,134.41,71.5,62.979,62.979,0,0,1,71.5,134.41Z" fill="#b6b8b9" opacity="0.571"/><path d="M70.6,133.468a62.87,62.87,0,1,1,62.87-62.87A62.941,62.941,0,0,1,70.6,133.468Z" fill="#b0b2b3" opacity="0.619"/><path d="M69.693,132.525a62.832,62.832,0,1,1,62.832-62.832A62.9,62.9,0,0,1,69.693,132.525Z" fill="#aaacae" opacity="0.667"/><path d="M68.789,131.583a62.794,62.794,0,1,1,62.794-62.794A62.865,62.865,0,0,1,68.789,131.583Z" fill="#a4a6a8" opacity="0.714"/><path d="M67.884,130.64A62.757,62.757,0,1,1,130.64,67.884,62.828,62.828,0,0,1,67.884,130.64Z" fill="#9ea0a2" opacity="0.762"/><path d="M66.979,129.7A62.719,62.719,0,1,1,129.7,66.979,62.79,62.79,0,0,1,66.979,129.7Z" fill="#989a9c" opacity="0.81"/><path d="M66.074,128.755a62.681,62.681,0,1,1,62.681-62.681A62.752,62.752,0,0,1,66.074,128.755Z" fill="#929496" opacity="0.857"/><path d="M65.17,127.813A62.643,62.643,0,1,1,127.813,65.17,62.714,62.714,0,0,1,65.17,127.813Z" fill="#8c8e91" opacity="0.905"/><path d="M64.265,126.87A62.606,62.606,0,1,1,126.87,64.265,62.677,62.677,0,0,1,64.265,126.87Z" fill="#86888b" opacity="0.952"/><path d="M63.36,125.928A62.568,62.568,0,1,1,125.928,63.36,62.639,62.639,0,0,1,63.36,125.928Z" fill="#808285"/></g><path d="M63.36,126.72a63.36,63.36,0,1,1,63.36-63.36A63.432,63.432,0,0,1,63.36,126.72Z" fill="url(#linear-gradient)"/><path d="M63.36,123.552A60.192,60.192,0,1,1,123.552,63.36,60.26,60.26,0,0,1,63.36,123.552Z" fill="url(#linear-gradient-2)"/><g style="mix-blend-mode:multiply"><circle cx="76.36" cy="76.36" r="47.52" fill="#fff" opacity="0"/><circle cx="75.548" cy="75.547" r="47.471" fill="#f7f7f7" opacity="0.063"/><circle cx="74.735" cy="74.735" r="47.421" fill="#efeff0" opacity="0.125"/><circle cx="73.923" cy="73.922" r="47.372" fill="#e7e8e8" opacity="0.188"/><circle cx="73.11" cy="73.11" r="47.322" fill="#dfe0e1" opacity="0.25"/><circle cx="72.298" cy="72.297" r="47.273" fill="#d7d8d9" opacity="0.313"/><circle cx="71.485" cy="71.485" r="47.223" fill="#cfd0d1" opacity="0.375"/><circle cx="70.673" cy="70.672" r="47.173" fill="#c7c8ca" opacity="0.438"/><circle cx="69.86" cy="69.86" r="47.124" fill="#c0c1c2" opacity="0.5"/><circle cx="69.048" cy="69.047" r="47.075" fill="#b8b9ba" opacity="0.563"/><circle cx="68.235" cy="68.235" r="47.025" fill="#b0b1b3" opacity="0.625"/><circle cx="67.423" cy="67.422" r="46.975" fill="#a8a9ab" opacity="0.688"/><circle cx="66.61" cy="66.61" r="46.926" fill="#a0a1a4" opacity="0.75"/><circle cx="65.798" cy="65.797" r="46.876" fill="#98999c" opacity="0.813"/><circle cx="64.985" cy="64.985" r="46.827" fill="#909294" opacity="0.875"/><circle cx="64.173" cy="64.172" r="46.777" fill="#888a8d" opacity="0.938"/><circle cx="63.36" cy="63.36" r="46.728" fill="#808285"/></g><circle cx="63.36" cy="63.36" r="47.52" fill="url(#linear-gradient-3)"/><path d="M63.36,102.96a39.6,39.6,0,1,1,39.6-39.6A39.645,39.645,0,0,1,63.36,102.96Z" fill="url(#linear-gradient-4)"/><g opacity="0.8" style="mix-blend-mode:multiply"><path d="M66.257,40.111a3.156,3.156,0,0,1,2,3.4c-.07,1.071.014,2.152-.025,3.227a2.6,2.6,0,1,1-5.192,0c-.038-1.075.045-2.155-.025-3.227a3.156,3.156,0,0,1,2-3.4Z" fill="#a7a9ac"/><path d="M38.939,66.178a3.156,3.156,0,0,1,3.406-2c1.071.069,2.152-.014,3.226.025a2.6,2.6,0,1,1,0,5.192c-1.074.038-2.155-.045-3.226.025a3.156,3.156,0,0,1-3.406-2Z" fill="#a7a9ac"/><path d="M78.988,66.851a13.356,13.356,0,1,1-13.259-13.4A13.355,13.355,0,0,1,78.988,66.851Z" fill="#a7a9ac"/><path d="M87.576,69.383c-.727,0-1.457.048-2.179-.01a2.6,2.6,0,0,1-2.453-2.6,2.556,2.556,0,0,1,2.4-2.528,44,44,0,0,1,4.564,0,2.561,2.561,0,0,1,2.405,2.53,2.609,2.609,0,0,1-2.459,2.594C89.1,69.432,88.337,69.383,87.576,69.383Z" fill="#a7a9ac"/><path d="M63.053,88.745c0-.726-.048-1.457.01-2.179a2.6,2.6,0,0,1,2.6-2.451,2.556,2.556,0,0,1,2.526,2.407,44,44,0,0,1,0,4.564,2.56,2.56,0,0,1-2.532,2.4,2.607,2.607,0,0,1-2.591-2.462C63,90.271,63.053,89.506,63.053,88.745Z" fill="#a7a9ac"/><path d="M82.34,47.182a2.657,2.657,0,0,1,2.589,1.35,2.414,2.414,0,0,1-.243,2.829,42.762,42.762,0,0,1-3.373,3.376,2.57,2.57,0,0,1-3.6-3.635,44.437,44.437,0,0,1,3.3-3.3A4.306,4.306,0,0,1,82.34,47.182Z" fill="#a7a9ac"/><path d="M46.005,50.024a2.641,2.641,0,0,1,1.427-2.554,2.438,2.438,0,0,1,2.821.328c1.147,1.05,2.26,2.148,3.3,3.305a2.57,2.57,0,0,1-3.6,3.633,44.268,44.268,0,0,1-3.367-3.381A3.93,3.93,0,0,1,46.005,50.024Z" fill="#a7a9ac"/><path d="M48.874,86.43A2.651,2.651,0,0,1,46.3,85.009a2.429,2.429,0,0,1,.321-2.821c1.049-1.149,2.148-2.26,3.3-3.3a2.573,2.573,0,0,1,3.58,3.675,43.732,43.732,0,0,1-3.24,3.216A4.559,4.559,0,0,1,48.874,86.43Z" fill="#a7a9ac"/><path d="M82.294,86.433a6.439,6.439,0,0,1-1.487-.814c-1.013-.887-1.946-1.87-2.876-2.848a2.6,2.6,0,1,1,3.679-3.658c1,.956,1.984,1.933,2.931,2.941a2.513,2.513,0,0,1,.447,2.9C84.558,85.931,83.712,86.367,82.294,86.433Z" fill="#a7a9ac"/></g><path d="M64.549,39.22a3.156,3.156,0,0,1,2,3.4c-.07,1.071.014,2.152-.025,3.227a2.6,2.6,0,1,1-5.192,0c-.038-1.075.045-2.155-.025-3.227a3.156,3.156,0,0,1,2-3.4Z" fill="#fff"/><path d="M37.231,65.287a3.156,3.156,0,0,1,3.406-2c1.071.069,2.152-.014,3.226.025a2.6,2.6,0,1,1,0,5.192c-1.074.038-2.155-.045-3.226.025a3.156,3.156,0,0,1-3.406-2Z" fill="#fff"/><path d="M77.28,65.96a13.356,13.356,0,1,1-13.259-13.4A13.355,13.355,0,0,1,77.28,65.96Z" fill="#fff"/><path d="M85.867,68.492c-.727,0-1.457.048-2.179-.01a2.6,2.6,0,0,1-2.453-2.6,2.556,2.556,0,0,1,2.4-2.528,44,44,0,0,1,4.564,0,2.561,2.561,0,0,1,2.405,2.53,2.609,2.609,0,0,1-2.459,2.594C87.393,68.541,86.628,68.492,85.867,68.492Z" fill="#fff"/><path d="M61.344,87.854c0-.726-.048-1.457.01-2.179a2.6,2.6,0,0,1,2.6-2.451,2.556,2.556,0,0,1,2.526,2.407,44,44,0,0,1,0,4.564,2.56,2.56,0,0,1-2.532,2.4,2.607,2.607,0,0,1-2.591-2.462C61.3,89.38,61.344,88.615,61.344,87.854Z" fill="#fff"/><path d="M80.632,46.291a2.657,2.657,0,0,1,2.589,1.35,2.414,2.414,0,0,1-.243,2.829A42.762,42.762,0,0,1,79.6,53.847,2.57,2.57,0,0,1,76,50.212a44.437,44.437,0,0,1,3.3-3.3A4.306,4.306,0,0,1,80.632,46.291Z" fill="#fff"/><path d="M44.3,49.133a2.641,2.641,0,0,1,1.427-2.554,2.438,2.438,0,0,1,2.821.328c1.147,1.05,2.26,2.148,3.3,3.305a2.57,2.57,0,0,1-3.6,3.633,44.268,44.268,0,0,1-3.367-3.381A3.93,3.93,0,0,1,44.3,49.133Z" fill="#fff"/><path d="M47.166,85.539a2.651,2.651,0,0,1-2.573-1.421,2.429,2.429,0,0,1,.321-2.821c1.049-1.149,2.148-2.26,3.3-3.3a2.573,2.573,0,0,1,3.58,3.675,43.732,43.732,0,0,1-3.24,3.216A4.559,4.559,0,0,1,47.166,85.539Z" fill="#fff"/><path d="M80.586,85.542a6.439,6.439,0,0,1-1.487-.814c-1.013-.887-1.946-1.87-2.876-2.848A2.6,2.6,0,1,1,79.9,78.222c1,.956,1.984,1.933,2.931,2.941a2.513,2.513,0,0,1,.447,2.9C82.85,85.04,82,85.476,80.586,85.542Z" fill="#fff"/></g></g></g></svg>