<svg xmlns="http://www.w3.org/2000/svg" xmlns:xlink="http://www.w3.org/1999/xlink" viewBox="0 0 145.72 145.72"><defs><linearGradient id="linear-gradient" y1="63.36" x2="126.72" y2="63.36" gradientUnits="userSpaceOnUse"><stop offset="0" stop-color="#fff"/><stop offset="1" stop-color="#d1d3d4"/></linearGradient><linearGradient id="linear-gradient-2" x1="3.168" y1="63.36" x2="123.552" y2="63.36" gradientUnits="userSpaceOnUse"><stop offset="0" stop-color="#d1d3d4"/><stop offset="1" stop-color="#fff"/></linearGradient><linearGradient id="linear-gradient-3" x1="110.88" y1="63.36" x2="15.84" y2="63.36" gradientUnits="userSpaceOnUse"><stop offset="0" stop-color="#00577f"/><stop offset="1" stop-color="#0082bf"/></linearGradient><linearGradient id="linear-gradient-4" x1="23.76" y1="63.36" x2="102.96" y2="63.36" xlink:href="#linear-gradient-3"/></defs><title>link clicked</title><g style="isolation:isolate"><g id="Layer_2" data-name="Layer 2"><g id="symbol_buttons" data-name="symbol buttons"><g style="mix-blend-mode:multiply"><path d="M82.36,145.72a63.36,63.36,0,1,1,63.36-63.36A63.432,63.432,0,0,1,82.36,145.72Z" fill="#fff" opacity="0"/><path d="M81.455,144.778a63.322,63.322,0,1,1,63.322-63.322A63.394,63.394,0,0,1,81.455,144.778Z" fill="#f9f9f9" opacity="0.048"/><path d="M80.55,143.835A63.285,63.285,0,1,1,143.835,80.55,63.356,63.356,0,0,1,80.55,143.835Z" fill="#f3f3f3" opacity="0.095"/><path d="M79.646,142.893a63.247,63.247,0,1,1,63.247-63.247A63.318,63.318,0,0,1,79.646,142.893Z" fill="#ededee" opacity="0.143"/><path d="M78.741,141.95A63.209,63.209,0,1,1,141.95,78.741,63.281,63.281,0,0,1,78.741,141.95Z" fill="#e7e7e8" opacity="0.19"/><path d="M77.836,141.008a63.171,63.171,0,1,1,63.171-63.171A63.243,63.243,0,0,1,77.836,141.008Z" fill="#e1e1e2" opacity="0.238"/><path d="M76.931,140.065a63.134,63.134,0,1,1,63.134-63.134A63.205,63.205,0,0,1,76.931,140.065Z" fill="#dbdbdc" opacity="0.286"/><path d="M76.027,139.123a63.1,63.1,0,1,1,63.1-63.1A63.167,63.167,0,0,1,76.027,139.123Z" fill="#d5d5d6" opacity="0.333"/><path d="M75.122,138.18A63.058,63.058,0,1,1,138.18,75.122,63.13,63.13,0,0,1,75.122,138.18Z" fill="#cfcfd1" opacity="0.381"/><path d="M74.217,137.238a63.021,63.021,0,1,1,63.021-63.021A63.092,63.092,0,0,1,74.217,137.238Z" fill="#c9c9cb" opacity="0.429"/><path d="M73.312,136.3A62.983,62.983,0,1,1,136.3,73.312,63.054,63.054,0,0,1,73.312,136.3Z" fill="#c3c3c5" opacity="0.476"/><path d="M72.408,135.353a62.945,62.945,0,1,1,62.945-62.945A63.016,63.016,0,0,1,72.408,135.353Z" fill="#bcbebf" opacity="0.524"/><path d="M71.5,134.41A62.907,62.907,0,1,1,134.41,71.5,62.979,62.979,0,0,1,71.5,134.41Z" fill="#b6b8b9" opacity="0.571"/><path d="M70.6,133.468a62.87,62.87,0,1,1,62.87-62.87A62.941,62.941,0,0,1,70.6,133.468Z" fill="#b0b2b3" opacity="0.619"/><path d="M69.693,132.525a62.832,62.832,0,1,1,62.832-62.832A62.9,62.9,0,0,1,69.693,132.525Z" fill="#aaacae" opacity="0.667"/><path d="M68.789,131.583a62.794,62.794,0,1,1,62.794-62.794A62.865,62.865,0,0,1,68.789,131.583Z" fill="#a4a6a8" opacity="0.714"/><path d="M67.884,130.64A62.757,62.757,0,1,1,130.64,67.884,62.828,62.828,0,0,1,67.884,130.64Z" fill="#9ea0a2" opacity="0.762"/><path d="M66.979,129.7A62.719,62.719,0,1,1,129.7,66.979,62.79,62.79,0,0,1,66.979,129.7Z" fill="#989a9c" opacity="0.81"/><path d="M66.074,128.755a62.681,62.681,0,1,1,62.681-62.681A62.752,62.752,0,0,1,66.074,128.755Z" fill="#929496" opacity="0.857"/><path d="M65.17,127.813A62.643,62.643,0,1,1,127.813,65.17,62.714,62.714,0,0,1,65.17,127.813Z" fill="#8c8e91" opacity="0.905"/><path d="M64.265,126.87A62.606,62.606,0,1,1,126.87,64.265,62.676,62.676,0,0,1,64.265,126.87Z" fill="#86888b" opacity="0.952"/><path d="M63.36,125.928A62.568,62.568,0,1,1,125.928,63.36,62.639,62.639,0,0,1,63.36,125.928Z" fill="#808285"/></g><path d="M63.36,126.72a63.36,63.36,0,1,1,63.36-63.36A63.432,63.432,0,0,1,63.36,126.72Z" fill="url(#linear-gradient)"/><path d="M63.36,123.552A60.192,60.192,0,1,1,123.552,63.36,60.26,60.26,0,0,1,63.36,123.552Z" fill="url(#linear-gradient-2)"/><g style="mix-blend-mode:multiply"><circle cx="76.36" cy="76.36" r="47.52" fill="#fff" opacity="0"/><circle cx="75.547" cy="75.547" r="47.471" fill="#f7f7f7" opacity="0.063"/><circle cx="74.735" cy="74.735" r="47.421" fill="#efeff0" opacity="0.125"/><circle cx="73.923" cy="73.922" r="47.371" fill="#e7e8e8" opacity="0.188"/><circle cx="73.11" cy="73.11" r="47.322" fill="#dfe0e1" opacity="0.25"/><circle cx="72.298" cy="72.297" r="47.272" fill="#d7d8d9" opacity="0.313"/><circle cx="71.485" cy="71.485" r="47.223" fill="#cfd0d1" opacity="0.375"/><circle cx="70.673" cy="70.672" r="47.173" fill="#c7c8ca" opacity="0.438"/><circle cx="69.86" cy="69.86" r="47.124" fill="#c0c1c2" opacity="0.5"/><circle cx="69.048" cy="69.047" r="47.074" fill="#b8b9ba" opacity="0.563"/><circle cx="68.235" cy="68.235" r="47.025" fill="#b0b1b3" opacity="0.625"/><circle cx="67.423" cy="67.422" r="46.975" fill="#a8a9ab" opacity="0.688"/><circle cx="66.61" cy="66.61" r="46.926" fill="#a0a1a4" opacity="0.75"/><circle cx="65.798" cy="65.797" r="46.876" fill="#98999c" opacity="0.813"/><circle cx="64.985" cy="64.985" r="46.827" fill="#909294" opacity="0.875"/><circle cx="64.173" cy="64.172" r="46.777" fill="#888a8d" opacity="0.938"/><circle cx="63.36" cy="63.36" r="46.728" fill="#808285"/></g><circle cx="63.36" cy="63.36" r="47.52" fill="url(#linear-gradient-3)"/><path d="M63.36,102.96a39.6,39.6,0,1,1,39.6-39.6A39.645,39.645,0,0,1,63.36,102.96Z" fill="url(#linear-gradient-4)"/><g opacity="0.8" style="mix-blend-mode:multiply"><path d="M91.991,55.941a16.592,16.592,0,0,1-.839,2.955,17.394,17.394,0,0,1-2.584,4.355c-3.5,3.728-7.074,7.4-10.835,10.867a13.379,13.379,0,0,1-20.548-2.979l4.977-5.232a6.746,6.746,0,0,0,3.493,4.126,6.275,6.275,0,0,0,7.227-.77c2.274-1.961,4.332-4.174,6.463-6.3,1.444-1.439,2.933-2.845,4.26-4.389a6.762,6.762,0,0,0-9.525-9.51c-1.221,1.035-2.3,2.235-3.475,3.329-.23.214-.66.463-.893.385a18.49,18.49,0,0,0-8.057-.821c.05-.166.049-.279.106-.335,2.388-2.389,4.758-4.8,7.179-7.151a13.065,13.065,0,0,1,7.439-3.629,1.328,1.328,0,0,0,.35-.164h3.213a1.5,1.5,0,0,0,.352.162A13.564,13.564,0,0,1,91.683,51.49c.1.414.205.826.308,1.238Z" fill="#a7a9ac"/><path d="M40.583,76.826c.1-.38.2-.758.286-1.141a12.96,12.96,0,0,1,3.376-6.5c3.5-3.55,6.935-7.168,10.595-10.544a13.452,13.452,0,0,1,20.721,3.272l-4.746,5.056a24.636,24.636,0,0,0-2.584-3.329,6.38,6.38,0,0,0-8.689-.015c-3.585,3.358-7.078,6.827-10.432,10.416a6.611,6.611,0,0,0,.338,9.252,6.728,6.728,0,0,0,9.2.283c1.191-1.019,2.247-2.2,3.393-3.27a1.074,1.074,0,0,1,.823-.32,18.485,18.485,0,0,0,8.057.819c-.05.167-.049.28-.1.336-2.412,2.412-4.8,4.846-7.254,7.219a12.982,12.982,0,0,1-7.365,3.562,1.337,1.337,0,0,0-.35.164H52.632a2.436,2.436,0,0,0-.451-.176A13.392,13.392,0,0,1,41.3,82.72c-.314-.866-.479-1.786-.713-2.681Z" fill="#a7a9ac"/></g><path d="M90.6,52.771a16.592,16.592,0,0,1-.839,2.955A17.394,17.394,0,0,1,87.18,60.08c-3.5,3.728-7.074,7.4-10.835,10.867A13.379,13.379,0,0,1,55.8,67.968l4.977-5.232a6.746,6.746,0,0,0,3.493,4.126,6.275,6.275,0,0,0,7.227-.77c2.274-1.961,4.332-4.174,6.463-6.3,1.444-1.439,2.933-2.845,4.26-4.389a6.762,6.762,0,0,0-9.525-9.51c-1.221,1.035-2.3,2.235-3.475,3.329-.23.214-.66.463-.893.385a18.49,18.49,0,0,0-8.057-.821c.05-.166.049-.279.106-.335,2.388-2.389,4.758-4.8,7.179-7.151a13.065,13.065,0,0,1,7.439-3.629,1.328,1.328,0,0,0,.35-.164h3.213a1.5,1.5,0,0,0,.352.162A13.564,13.564,0,0,1,90.3,48.32c.1.414.205.826.308,1.238Z" fill="#fff"/><path d="M39.2,73.656c.1-.38.2-.758.286-1.141a12.96,12.96,0,0,1,3.376-6.5c3.5-3.55,6.935-7.168,10.595-10.544a13.452,13.452,0,0,1,20.721,3.272L69.427,63.8a24.636,24.636,0,0,0-2.584-3.329,6.38,6.38,0,0,0-8.689-.015c-3.585,3.358-7.078,6.827-10.432,10.416a6.611,6.611,0,0,0,.338,9.252,6.728,6.728,0,0,0,9.2.283c1.191-1.019,2.247-2.2,3.393-3.27a1.074,1.074,0,0,1,.823-.32,18.485,18.485,0,0,0,8.057.819c-.05.167-.049.28-.1.336-2.412,2.412-4.8,4.846-7.254,7.219a12.982,12.982,0,0,1-7.365,3.562,1.337,1.337,0,0,0-.35.164H51.244a2.436,2.436,0,0,0-.451-.176,13.392,13.392,0,0,1-10.885-9.192c-.314-.866-.479-1.786-.713-2.681Z" fill="#fff"/></g></g></g></svg>