<svg xmlns="http://www.w3.org/2000/svg" xmlns:xlink="http://www.w3.org/1999/xlink" viewBox="0 0 31.847 34.251"><defs><symbol id="To_Do" data-name="To Do" viewBox="0 0 63.901 64"><polygon points="23.981 38.75 23.982 38.75 23.98 38.746 23.981 38.75"/><polygon points="31.855 30.871 23.982 38.75 38.82 53.59 63.901 28.516 58.17 22.684 38.982 38.617 31.855 30.871"/><path d="M50,60H4V8.027H9.465V10.1a2.008,2.008,0,0,0,2,2h.5a2.007,2.007,0,0,0,2-2V8.027h5.846V10.1a2.008,2.008,0,0,0,2,2h.5a2.007,2.007,0,0,0,2-2V8.027h5.845V10.1a2.008,2.008,0,0,0,2,2h.5a2.007,2.007,0,0,0,2-2V8.027H40.5V10.1a2.008,2.008,0,0,0,2,2H43a2.007,2.007,0,0,0,2-2V8.027h1.193L50,11.766v11.2l4-3.32V10.086L47.828,4.027H45V2a2.007,2.007,0,0,0-2-2h-.5a2.008,2.008,0,0,0-2,2V4.027H34.655V2a2.007,2.007,0,0,0-2-2h-.5a2.008,2.008,0,0,0-2,2V4.027H24.311V2a2.007,2.007,0,0,0-2-2h-.5a2.008,2.008,0,0,0-2,2V4.027H13.965V2a2.007,2.007,0,0,0-2-2h-.5a2.008,2.008,0,0,0-2,2V4.027H0V64H54V45.484l-4,4Z"/></symbol></defs><title>Asset 55</title><g id="Layer_2" data-name="Layer 2"><g id="Layer_8" data-name="Layer 8"><use id="To_Do-3" data-name="To Do" width="63.901" height="64" transform="scale(0.498 0.535)" xlink:href="#To_Do"/></g></g></svg>