<svg xmlns="http://www.w3.org/2000/svg" xmlns:xlink="http://www.w3.org/1999/xlink" viewBox="0 0 60.873 60.873"><defs><linearGradient id="linear-gradient" y1="30.436" x2="60.873" y2="30.436" gradientUnits="userSpaceOnUse"><stop offset="0" stop-color="#fff"/><stop offset="1" stop-color="#d1d3d4"/></linearGradient><linearGradient id="linear-gradient-2" x1="1.522" y1="30.436" x2="59.351" y2="30.436" gradientUnits="userSpaceOnUse"><stop offset="0" stop-color="#d1d3d4"/><stop offset="1" stop-color="#fff"/></linearGradient><linearGradient id="linear-gradient-3" x1="7.609" y1="30.436" x2="53.264" y2="30.436" gradientUnits="userSpaceOnUse"><stop offset="0" stop-color="#00aeee"/><stop offset="1" stop-color="#0095da"/></linearGradient><linearGradient id="linear-gradient-4" x1="11.414" y1="30.436" x2="49.459" y2="30.436" gradientUnits="userSpaceOnUse"><stop offset="0" stop-color="#0095da"/><stop offset="1" stop-color="#00aeee"/></linearGradient></defs><title>7</title><g style="isolation:isolate"><g id="Layer_2" data-name="Layer 2"><g id="symbol_buttons" data-name="symbol buttons"><path d="M30.436,60.873A30.436,30.436,0,1,1,60.873,30.436,30.471,30.471,0,0,1,30.436,60.873Z" fill="url(#linear-gradient)"/><path d="M30.436,59.351A28.915,28.915,0,1,1,59.351,30.436,28.948,28.948,0,0,1,30.436,59.351Z" fill="url(#linear-gradient-2)"/><g style="mix-blend-mode:multiply"><circle cx="36.681" cy="36.681" r="22.827" fill="#fff" opacity="0"/><circle cx="36.291" cy="36.291" r="22.804" fill="#f7f7f7" opacity="0.063"/><circle cx="35.901" cy="35.901" r="22.78" fill="#efeff0" opacity="0.125"/><circle cx="35.51" cy="35.51" r="22.756" fill="#e7e8e8" opacity="0.188"/><circle cx="35.12" cy="35.12" r="22.732" fill="#dfe0e1" opacity="0.25"/><circle cx="34.73" cy="34.73" r="22.708" fill="#d7d8d9" opacity="0.313"/><circle cx="34.339" cy="34.339" r="22.685" fill="#cfd0d1" opacity="0.375"/><circle cx="33.949" cy="33.949" r="22.661" fill="#c7c8ca" opacity="0.438"/><circle cx="33.559" cy="33.559" r="22.637" fill="#c0c1c2" opacity="0.5"/><circle cx="33.169" cy="33.169" r="22.613" fill="#b8b9ba" opacity="0.563"/><circle cx="32.778" cy="32.778" r="22.59" fill="#b0b1b3" opacity="0.625"/><circle cx="32.388" cy="32.388" r="22.566" fill="#a8a9ab" opacity="0.688"/><circle cx="31.998" cy="31.998" r="22.542" fill="#a0a1a4" opacity="0.75"/><circle cx="31.607" cy="31.607" r="22.518" fill="#98999c" opacity="0.813"/><circle cx="31.217" cy="31.217" r="22.494" fill="#909294" opacity="0.875"/><circle cx="30.827" cy="30.827" r="22.471" fill="#888a8d" opacity="0.938"/><circle cx="30.436" cy="30.436" r="22.447" fill="#808285"/></g><circle cx="30.436" cy="30.436" r="22.827" fill="url(#linear-gradient-3)"/><path d="M30.436,49.459A19.023,19.023,0,1,1,49.459,30.436,19.044,19.044,0,0,1,30.436,49.459Z" fill="url(#linear-gradient-4)"/><g opacity="0.8" style="mix-blend-mode:multiply"><path d="M31.828,19.268a1.516,1.516,0,0,1,.958,1.635c-.034.515.007,1.034-.012,1.55a1.249,1.249,0,1,1-2.494,0c-.018-.516.022-1.035-.012-1.55a1.516,1.516,0,0,1,.958-1.635Z" fill="#a7a9ac"/><path d="M18.705,31.79a1.516,1.516,0,0,1,1.636-.958c.515.033,1.034-.007,1.55.012a1.249,1.249,0,1,1,0,2.494c-.516.018-1.035-.021-1.55.012a1.516,1.516,0,0,1-1.636-.958Z" fill="#a7a9ac"/><path d="M37.944,32.113a6.416,6.416,0,1,1-6.369-6.439A6.416,6.416,0,0,1,37.944,32.113Z" fill="#a7a9ac"/><path d="M42.069,33.33c-.349,0-.7.023-1.047,0a1.25,1.25,0,0,1-1.178-1.247A1.228,1.228,0,0,1,41,30.863a21.137,21.137,0,0,1,2.192,0,1.23,1.23,0,0,1,1.155,1.215,1.253,1.253,0,0,1-1.181,1.246C42.8,33.353,42.435,33.33,42.069,33.33Z" fill="#a7a9ac"/><path d="M30.289,42.631c0-.349-.023-.7,0-1.047a1.25,1.25,0,0,1,1.248-1.177,1.228,1.228,0,0,1,1.214,1.156,21.135,21.135,0,0,1,0,2.192,1.23,1.23,0,0,1-1.216,1.154,1.252,1.252,0,0,1-1.245-1.183C30.265,43.364,30.289,43,30.289,42.631Z" fill="#a7a9ac"/><path d="M39.554,22.665a1.276,1.276,0,0,1,1.244.648,1.16,1.16,0,0,1-.117,1.359,20.542,20.542,0,0,1-1.62,1.622,1.235,1.235,0,0,1-1.729-1.746,21.346,21.346,0,0,1,1.588-1.584A2.068,2.068,0,0,1,39.554,22.665Z" fill="#a7a9ac"/><path d="M22.1,24.03a1.269,1.269,0,0,1,.686-1.227,1.171,1.171,0,0,1,1.355.158c.551.5,1.086,1.032,1.584,1.588a1.235,1.235,0,0,1-1.73,1.745,21.265,21.265,0,0,1-1.618-1.624A1.888,1.888,0,0,1,22.1,24.03Z" fill="#a7a9ac"/><path d="M23.478,41.519a1.273,1.273,0,0,1-1.236-.682,1.167,1.167,0,0,1,.154-1.355c.5-.552,1.032-1.086,1.587-1.585a1.236,1.236,0,0,1,1.72,1.765,21.008,21.008,0,0,1-1.557,1.545A2.19,2.19,0,0,1,23.478,41.519Z" fill="#a7a9ac"/><path d="M39.532,41.52a3.093,3.093,0,0,1-.714-.391c-.487-.426-.935-.9-1.382-1.368A1.247,1.247,0,1,1,39.2,38c.481.459.953.929,1.408,1.413a1.207,1.207,0,0,1,.215,1.393A1.291,1.291,0,0,1,39.532,41.52Z" fill="#a7a9ac"/></g><path d="M31.008,18.84a1.516,1.516,0,0,1,.958,1.635c-.034.515.007,1.034-.012,1.55a1.249,1.249,0,1,1-2.494,0c-.018-.516.022-1.035-.012-1.55a1.516,1.516,0,0,1,.958-1.635Z" fill="#fff"/><path d="M17.885,31.362a1.516,1.516,0,0,1,1.636-.958c.515.033,1.034-.007,1.55.012a1.249,1.249,0,1,1,0,2.494c-.516.018-1.035-.021-1.55.012a1.516,1.516,0,0,1-1.636-.958Z" fill="#fff"/><path d="M37.123,31.685a6.416,6.416,0,1,1-6.369-6.439A6.416,6.416,0,0,1,37.123,31.685Z" fill="#fff"/><path d="M41.248,32.9c-.349,0-.7.023-1.047,0a1.25,1.25,0,0,1-1.178-1.247,1.228,1.228,0,0,1,1.155-1.215,21.137,21.137,0,0,1,2.192,0,1.23,1.23,0,0,1,1.155,1.215A1.253,1.253,0,0,1,42.345,32.9C41.981,32.925,41.614,32.9,41.248,32.9Z" fill="#fff"/><path d="M29.468,42.2c0-.349-.023-.7,0-1.047a1.25,1.25,0,0,1,1.248-1.177,1.228,1.228,0,0,1,1.214,1.156,21.135,21.135,0,0,1,0,2.192,1.23,1.23,0,0,1-1.216,1.154A1.252,1.252,0,0,1,29.473,43.3C29.445,42.936,29.468,42.568,29.468,42.2Z" fill="#fff"/><path d="M38.733,22.237a1.276,1.276,0,0,1,1.244.648,1.16,1.16,0,0,1-.117,1.359,20.542,20.542,0,0,1-1.62,1.622,1.235,1.235,0,0,1-1.729-1.746A21.346,21.346,0,0,1,38.1,22.536,2.068,2.068,0,0,1,38.733,22.237Z" fill="#fff"/><path d="M21.279,23.6a1.269,1.269,0,0,1,.686-1.227,1.171,1.171,0,0,1,1.355.158c.551.5,1.086,1.032,1.584,1.588a1.235,1.235,0,0,1-1.73,1.745,21.265,21.265,0,0,1-1.618-1.624A1.888,1.888,0,0,1,21.279,23.6Z" fill="#fff"/><path d="M22.657,41.091a1.273,1.273,0,0,1-1.236-.682,1.167,1.167,0,0,1,.154-1.355c.5-.552,1.032-1.086,1.587-1.585a1.236,1.236,0,0,1,1.72,1.765,21.008,21.008,0,0,1-1.557,1.545A2.19,2.19,0,0,1,22.657,41.091Z" fill="#fff"/><path d="M38.711,41.092A3.093,3.093,0,0,1,38,40.7c-.487-.426-.935-.9-1.382-1.368a1.247,1.247,0,1,1,1.767-1.757c.481.459.953.929,1.408,1.413a1.207,1.207,0,0,1,.215,1.393A1.291,1.291,0,0,1,38.711,41.092Z" fill="#fff"/></g></g></g></svg>