<svg xmlns="http://www.w3.org/2000/svg" xmlns:xlink="http://www.w3.org/1999/xlink" viewBox="0 0 60.873 60.873"><defs><linearGradient id="linear-gradient" y1="30.436" x2="60.873" y2="30.436" gradientUnits="userSpaceOnUse"><stop offset="0" stop-color="#fff"/><stop offset="1" stop-color="#d1d3d4"/></linearGradient><linearGradient id="linear-gradient-2" x1="1.522" y1="30.436" x2="59.351" y2="30.436" gradientUnits="userSpaceOnUse"><stop offset="0" stop-color="#d1d3d4"/><stop offset="1" stop-color="#fff"/></linearGradient><linearGradient id="linear-gradient-3" x1="7.609" y1="30.436" x2="53.264" y2="30.436" gradientUnits="userSpaceOnUse"><stop offset="0" stop-color="#00aeee"/><stop offset="1" stop-color="#0095da"/></linearGradient><linearGradient id="linear-gradient-4" x1="11.414" y1="30.436" x2="49.459" y2="30.436" gradientUnits="userSpaceOnUse"><stop offset="0" stop-color="#0095da"/><stop offset="1" stop-color="#00aeee"/></linearGradient></defs><title>6</title><g style="isolation:isolate"><g id="Layer_2" data-name="Layer 2"><g id="symbol_buttons" data-name="symbol buttons"><path d="M30.436,60.873A30.436,30.436,0,1,1,60.873,30.436,30.471,30.471,0,0,1,30.436,60.873Z" fill="url(#linear-gradient)"/><path d="M30.436,59.351A28.915,28.915,0,1,1,59.351,30.436,28.948,28.948,0,0,1,30.436,59.351Z" fill="url(#linear-gradient-2)"/><g style="mix-blend-mode:multiply"><circle cx="36.681" cy="36.681" r="22.827" fill="#fff" opacity="0"/><circle cx="36.291" cy="36.291" r="22.804" fill="#f7f7f7" opacity="0.063"/><circle cx="35.901" cy="35.901" r="22.78" fill="#efeff0" opacity="0.125"/><circle cx="35.51" cy="35.51" r="22.756" fill="#e7e8e8" opacity="0.188"/><circle cx="35.12" cy="35.12" r="22.732" fill="#dfe0e1" opacity="0.25"/><circle cx="34.73" cy="34.73" r="22.708" fill="#d7d8d9" opacity="0.313"/><circle cx="34.339" cy="34.339" r="22.685" fill="#cfd0d1" opacity="0.375"/><circle cx="33.949" cy="33.949" r="22.661" fill="#c7c8ca" opacity="0.438"/><circle cx="33.559" cy="33.559" r="22.637" fill="#c0c1c2" opacity="0.5"/><circle cx="33.169" cy="33.169" r="22.613" fill="#b8b9ba" opacity="0.563"/><circle cx="32.778" cy="32.778" r="22.59" fill="#b0b1b3" opacity="0.625"/><circle cx="32.388" cy="32.388" r="22.566" fill="#a8a9ab" opacity="0.688"/><circle cx="31.998" cy="31.998" r="22.542" fill="#a0a1a4" opacity="0.75"/><circle cx="31.607" cy="31.607" r="22.518" fill="#98999c" opacity="0.813"/><circle cx="31.217" cy="31.217" r="22.494" fill="#909294" opacity="0.875"/><circle cx="30.827" cy="30.827" r="22.471" fill="#888a8d" opacity="0.938"/><circle cx="30.436" cy="30.436" r="22.447" fill="#808285"/></g><circle cx="30.436" cy="30.436" r="22.827" fill="url(#linear-gradient-3)"/><path d="M30.436,49.459A19.023,19.023,0,1,1,49.459,30.436,19.044,19.044,0,0,1,30.436,49.459Z" fill="url(#linear-gradient-4)"/><g opacity="0.8" style="mix-blend-mode:multiply"><path d="M30.641,20.144H32.45c.016.059.06.066.113.072a7.261,7.261,0,0,1,4.555,2.254A7.566,7.566,0,0,1,39.151,29.4a8.21,8.21,0,0,0-3.451-.293A7.405,7.405,0,0,0,31.65,31h-.059a7.048,7.048,0,0,0-2.523-1.514A7.86,7.86,0,0,0,24.09,29.4c0-.037-.006-.075-.013-.112A7.675,7.675,0,0,1,29.9,20.339,1.777,1.777,0,0,0,30.641,20.144Z" fill="#a7a9ac"/><path d="M37.65,44.411H35.766c-.052-.125-.172-.077-.26-.093a7.692,7.692,0,0,1-3.865-1.856c.1-.108.21-.215.313-.324a7.583,7.583,0,0,0,2.059-6.984l.025-.036a7.464,7.464,0,0,0,3.351-2.208,8.058,8.058,0,0,0,1.776-3.484,7.672,7.672,0,0,1,5,5.287,8.148,8.148,0,0,0,.264,1.106V37.7c-.14.1-.1.272-.127.408a7.633,7.633,0,0,1-5.584,6.046A8.51,8.51,0,0,0,37.65,44.411Z" fill="#a7a9ac"/><path d="M18.809,37.7V35.745c.127-.052.075-.173.093-.261a7.667,7.667,0,0,1,5.176-6.057c.029.1.06.191.087.287a7.6,7.6,0,0,0,5.04,5.406l.025.036a7.467,7.467,0,0,0,.115,3.643A8,8,0,0,0,31.6,42.462a7.609,7.609,0,0,1-3.351,1.747,3.092,3.092,0,0,0-.849.2H25.516c-.105-.139-.272-.1-.408-.127a7.626,7.626,0,0,1-6.126-5.914C18.923,38.149,18.963,37.9,18.809,37.7Z" fill="#a7a9ac"/><path d="M24.077,29.426l.013-.023a7.86,7.86,0,0,1,4.979.079A7.048,7.048,0,0,1,31.591,31c-.2.208-.4.413-.592.626a8.077,8.077,0,0,0-1.8,3.5,7.6,7.6,0,0,1-5.04-5.406C24.137,29.617,24.106,29.522,24.077,29.426Z" fill="#a7a9ac"/><path d="M39.151,29.4l.013.023a8.058,8.058,0,0,1-1.776,3.484,7.464,7.464,0,0,1-3.351,2.208A8.266,8.266,0,0,0,31.65,31a7.405,7.405,0,0,1,4.05-1.887A8.21,8.21,0,0,1,39.151,29.4Z" fill="#a7a9ac"/><path d="M31.65,31a8.266,8.266,0,0,1,2.387,4.122l-.025.036a8.075,8.075,0,0,1-4.783,0l-.025-.036a8.077,8.077,0,0,1,1.8-3.5c.192-.213.394-.418.592-.626Z" fill="#a7a9ac"/><path d="M29.23,35.154a8.075,8.075,0,0,0,4.783,0,7.583,7.583,0,0,1-2.059,6.984c-.1.109-.208.216-.313.324l-.02.014-.02-.014A8,8,0,0,1,29.344,38.8,7.467,7.467,0,0,1,29.23,35.154Z" fill="#a7a9ac"/></g><path d="M29.36,18.115h1.809c.016.059.06.066.113.072a7.261,7.261,0,0,1,4.555,2.254,7.566,7.566,0,0,1,2.033,6.932,8.21,8.21,0,0,0-3.451-.293,7.405,7.405,0,0,0-4.05,1.887h-.059a7.048,7.048,0,0,0-2.523-1.514,7.86,7.86,0,0,0-4.979-.079c0-.037-.006-.075-.013-.112a7.675,7.675,0,0,1,5.824-8.952A1.777,1.777,0,0,0,29.36,18.115Z" fill="#fe0101"/><path d="M36.369,42.382H34.485c-.052-.125-.172-.077-.26-.093a7.692,7.692,0,0,1-3.865-1.856c.1-.108.21-.215.313-.324a7.583,7.583,0,0,0,2.059-6.984l.025-.036a7.464,7.464,0,0,0,3.351-2.208A8.058,8.058,0,0,0,37.884,27.4a7.672,7.672,0,0,1,5,5.287,8.148,8.148,0,0,0,.264,1.106v1.884c-.14.1-.1.272-.127.408a7.633,7.633,0,0,1-5.584,6.046A8.51,8.51,0,0,0,36.369,42.382Z" fill="#0101fe"/><path d="M17.528,35.675V33.715c.127-.052.075-.173.093-.261A7.667,7.667,0,0,1,22.8,27.4c.029.1.06.191.087.287a7.6,7.6,0,0,0,5.04,5.406l.025.036a7.467,7.467,0,0,0,.115,3.643,8,8,0,0,0,2.257,3.665,7.609,7.609,0,0,1-3.351,1.747,3.092,3.092,0,0,0-.849.2H24.235c-.105-.139-.272-.1-.408-.127A7.626,7.626,0,0,1,17.7,36.342C17.642,36.12,17.682,35.872,17.528,35.675Z" fill="#01fe01"/><path d="M22.8,27.4l.013-.023a7.86,7.86,0,0,1,4.979.079,7.048,7.048,0,0,1,2.523,1.514c-.2.208-.4.413-.592.626a8.077,8.077,0,0,0-1.8,3.5,7.6,7.6,0,0,1-5.04-5.406C22.856,27.588,22.825,27.492,22.8,27.4Z" fill="#fdfd00"/><path d="M37.87,27.374l.013.023a8.058,8.058,0,0,1-1.776,3.484,7.464,7.464,0,0,1-3.351,2.208,8.266,8.266,0,0,0-2.387-4.122,7.405,7.405,0,0,1,4.05-1.887A8.21,8.21,0,0,1,37.87,27.374Z" fill="#fd00fd"/><path d="M30.37,28.967a8.266,8.266,0,0,1,2.387,4.122l-.025.036a8.075,8.075,0,0,1-4.783,0l-.025-.036a8.077,8.077,0,0,1,1.8-3.5c.192-.213.394-.418.592-.626Z" fill="#fdfdfd"/><path d="M27.949,33.125a8.075,8.075,0,0,0,4.783,0,7.583,7.583,0,0,1-2.059,6.984c-.1.109-.208.216-.313.324l-.02.014-.02-.014a8,8,0,0,1-2.257-3.665A7.467,7.467,0,0,1,27.949,33.125Z" fill="#00fdfd"/></g></g></g></svg>