<svg xmlns="http://www.w3.org/2000/svg" xmlns:xlink="http://www.w3.org/1999/xlink" viewBox="0 0 60.873 60.873"><defs><linearGradient id="linear-gradient" y1="30.436" x2="60.873" y2="30.436" gradientUnits="userSpaceOnUse"><stop offset="0" stop-color="#fff"/><stop offset="1" stop-color="#d1d3d4"/></linearGradient><linearGradient id="linear-gradient-2" x1="1.522" y1="30.436" x2="59.351" y2="30.436" gradientUnits="userSpaceOnUse"><stop offset="0" stop-color="#d1d3d4"/><stop offset="1" stop-color="#fff"/></linearGradient><linearGradient id="linear-gradient-3" x1="7.609" y1="30.436" x2="53.264" y2="30.436" gradientUnits="userSpaceOnUse"><stop offset="0" stop-color="#00aeee"/><stop offset="1" stop-color="#0095da"/></linearGradient><linearGradient id="linear-gradient-4" x1="11.414" y1="30.436" x2="49.459" y2="30.436" gradientUnits="userSpaceOnUse"><stop offset="0" stop-color="#0095da"/><stop offset="1" stop-color="#00aeee"/></linearGradient></defs><title>3</title><g style="isolation:isolate"><g id="Layer_2" data-name="Layer 2"><g id="symbol_buttons" data-name="symbol buttons"><path d="M30.436,60.873A30.436,30.436,0,1,1,60.873,30.436,30.471,30.471,0,0,1,30.436,60.873Z" fill="url(#linear-gradient)"/><path d="M30.436,59.351A28.915,28.915,0,1,1,59.351,30.436,28.948,28.948,0,0,1,30.436,59.351Z" fill="url(#linear-gradient-2)"/><circle cx="30.436" cy="30.436" r="22.827" fill="url(#linear-gradient-3)"/><path d="M30.436,49.459A19.023,19.023,0,1,1,49.459,30.436,19.044,19.044,0,0,1,30.436,49.459Z" fill="url(#linear-gradient-4)"/><path d="M15.121,31.98C17.845,28.27,21.16,25.287,25.6,23.8A16.785,16.785,0,0,1,40.79,25.97a24.624,24.624,0,0,1,5.755,5.508,1.212,1.212,0,0,1,.074,1.651c-2.719,3.516-5.954,6.38-10.257,7.8a16.788,16.788,0,0,1-15.083-2.16,23.923,23.923,0,0,1-6.157-6.04Zm22.572.427a6.683,6.683,0,1,0-6.8,6.629A6.712,6.712,0,0,0,37.694,32.407Z" fill="#a7a9ac" opacity="0.8" style="mix-blend-mode:multiply"/><path d="M30.939,35.936a3.587,3.587,0,1,1,3.666-3.451A3.608,3.608,0,0,1,30.939,35.936Z" fill="#a7a9ac" opacity="0.8" style="mix-blend-mode:multiply"/><path d="M13.964,31.034c2.724-3.71,6.039-6.693,10.474-8.178a16.785,16.785,0,0,1,15.195,2.168,24.624,24.624,0,0,1,5.755,5.508,1.212,1.212,0,0,1,.074,1.651c-2.719,3.516-5.954,6.38-10.257,7.8a16.788,16.788,0,0,1-15.083-2.16,23.923,23.923,0,0,1-6.157-6.04Zm22.572.427a6.683,6.683,0,1,0-6.8,6.629A6.712,6.712,0,0,0,36.536,31.461Z" fill="#fff"/><path d="M29.781,34.99a3.587,3.587,0,1,1,3.666-3.451A3.608,3.608,0,0,1,29.781,34.99Z" fill="#fff"/></g></g></g></svg>