<svg xmlns="http://www.w3.org/2000/svg" xmlns:xlink="http://www.w3.org/1999/xlink" viewBox="0 0 60.873 60.873"><defs><linearGradient id="linear-gradient" y1="30.436" x2="60.873" y2="30.436" gradientUnits="userSpaceOnUse"><stop offset="0" stop-color="#fff"/><stop offset="1" stop-color="#d1d3d4"/></linearGradient><linearGradient id="linear-gradient-2" x1="1.522" y1="30.436" x2="59.351" y2="30.436" gradientUnits="userSpaceOnUse"><stop offset="0" stop-color="#d1d3d4"/><stop offset="1" stop-color="#fff"/></linearGradient><linearGradient id="linear-gradient-3" x1="7.609" y1="30.436" x2="53.264" y2="30.436" gradientUnits="userSpaceOnUse"><stop offset="0" stop-color="#00aeee"/><stop offset="1" stop-color="#0095da"/></linearGradient><linearGradient id="linear-gradient-4" x1="11.414" y1="30.436" x2="49.459" y2="30.436" gradientUnits="userSpaceOnUse"><stop offset="0" stop-color="#0095da"/><stop offset="1" stop-color="#00aeee"/></linearGradient></defs><title>1</title><g style="isolation:isolate"><g id="Layer_2" data-name="Layer 2"><g id="symbol_buttons" data-name="symbol buttons"><path d="M30.436,60.873A30.436,30.436,0,1,1,60.873,30.436,30.471,30.471,0,0,1,30.436,60.873Z" fill="url(#linear-gradient)"/><path d="M30.436,59.351A28.915,28.915,0,1,1,59.351,30.436,28.948,28.948,0,0,1,30.436,59.351Z" fill="url(#linear-gradient-2)"/><g style="mix-blend-mode:multiply"><circle cx="36.681" cy="36.681" r="22.827" fill="#fff" opacity="0"/><circle cx="36.291" cy="36.291" r="22.804" fill="#f7f7f7" opacity="0.063"/><circle cx="35.901" cy="35.901" r="22.78" fill="#efeff0" opacity="0.125"/><circle cx="35.51" cy="35.51" r="22.756" fill="#e7e8e8" opacity="0.188"/><circle cx="35.12" cy="35.12" r="22.732" fill="#dfe0e1" opacity="0.25"/><circle cx="34.73" cy="34.73" r="22.708" fill="#d7d8d9" opacity="0.313"/><circle cx="34.339" cy="34.339" r="22.685" fill="#cfd0d1" opacity="0.375"/><circle cx="33.949" cy="33.949" r="22.661" fill="#c7c8ca" opacity="0.438"/><circle cx="33.559" cy="33.559" r="22.637" fill="#c0c1c2" opacity="0.5"/><circle cx="33.169" cy="33.169" r="22.613" fill="#b8b9ba" opacity="0.563"/><circle cx="32.778" cy="32.778" r="22.59" fill="#b0b1b3" opacity="0.625"/><circle cx="32.388" cy="32.388" r="22.566" fill="#a8a9ab" opacity="0.688"/><circle cx="31.998" cy="31.998" r="22.542" fill="#a0a1a4" opacity="0.75"/><circle cx="31.607" cy="31.607" r="22.518" fill="#98999c" opacity="0.813"/><circle cx="31.217" cy="31.217" r="22.494" fill="#909294" opacity="0.875"/><circle cx="30.827" cy="30.827" r="22.471" fill="#888a8d" opacity="0.938"/><circle cx="30.436" cy="30.436" r="22.447" fill="#808285"/></g><circle cx="30.436" cy="30.436" r="22.827" fill="url(#linear-gradient-3)"/><path d="M30.436,49.459A19.023,19.023,0,1,1,49.459,30.436,19.044,19.044,0,0,1,30.436,49.459Z" fill="url(#linear-gradient-4)"/><path d="M41.377,20.994H18.725a2.819,2.819,0,0,0-2.817,2.831l-.014,14.157a2.831,2.831,0,0,0,2.831,2.831H41.377a2.831,2.831,0,0,0,2.831-2.831V23.826A2.831,2.831,0,0,0,41.377,20.994ZM28.635,25.241h2.831v2.831H28.635Zm0,4.247h2.831V32.32H28.635Zm-4.247-4.247h2.831v2.831H24.388Zm0,4.247h2.831V32.32H24.388ZM22.972,32.32H20.141V29.488h2.831Zm0-4.247H20.141V25.241h2.831Zm12.741,9.91H24.388V35.151H35.714Zm0-5.663H32.882V29.488h2.831Zm0-4.247H32.882V25.241h2.831Zm4.247,4.247H37.129V29.488h2.831Zm0-4.247H37.129V25.241h2.831Z" fill="#a7a9ac" opacity="0.8" style="mix-blend-mode:multiply"/><path d="M42.249,20.059H19.6a2.819,2.819,0,0,0-2.817,2.831l-.014,14.157A2.831,2.831,0,0,0,19.6,39.879H42.249a2.831,2.831,0,0,0,2.831-2.831V22.89A2.831,2.831,0,0,0,42.249,20.059ZM29.508,24.306h2.831v2.831H29.508Zm0,4.247h2.831v2.831H29.508Zm-4.247-4.247h2.831v2.831H25.261Zm0,4.247h2.831v2.831H25.261Zm-1.416,2.831H21.014V28.553h2.831Zm0-4.247H21.014V24.306h2.831Zm12.741,9.91H25.261V34.216H36.586Zm0-5.663H33.755V28.553h2.831Zm0-4.247H33.755V24.306h2.831Zm4.247,4.247H38V28.553h2.831Zm0-4.247H38V24.306h2.831Z" fill="#fff"/></g></g></g></svg>