<svg xmlns="http://www.w3.org/2000/svg" xmlns:xlink="http://www.w3.org/1999/xlink" viewBox="0 0 57.143 57.143"><defs><linearGradient id="linear-gradient" y1="28.572" x2="57.143" y2="28.572" gradientUnits="userSpaceOnUse"><stop offset="0" stop-color="#fff"/><stop offset="1" stop-color="#d1d3d4"/></linearGradient><linearGradient id="linear-gradient-2" x1="1.429" y1="28.572" x2="55.715" y2="28.572" gradientUnits="userSpaceOnUse"><stop offset="0" stop-color="#d1d3d4"/><stop offset="1" stop-color="#fff"/></linearGradient><linearGradient id="linear-gradient-3" x1="7.143" y1="28.572" x2="50" y2="28.572" gradientUnits="userSpaceOnUse"><stop offset="0" stop-color="#00aeee"/><stop offset="1" stop-color="#0095da"/></linearGradient><linearGradient id="linear-gradient-4" x1="10.714" y1="28.572" x2="46.429" y2="28.572" gradientUnits="userSpaceOnUse"><stop offset="0" stop-color="#0095da"/><stop offset="1" stop-color="#00aeee"/></linearGradient></defs><title>11</title><g style="isolation:isolate"><g id="Layer_2" data-name="Layer 2"><g id="symbol_buttons" data-name="symbol buttons"><path d="M28.572,57.143A28.572,28.572,0,1,1,57.143,28.572,28.6,28.6,0,0,1,28.572,57.143Z" fill="url(#linear-gradient)"/><path d="M28.572,55.715A27.143,27.143,0,1,1,55.715,28.572,27.174,27.174,0,0,1,28.572,55.715Z" fill="url(#linear-gradient-2)"/><g style="mix-blend-mode:multiply"><circle cx="34.434" cy="34.434" r="21.429" fill="#fff" opacity="0"/><circle cx="34.067" cy="34.067" r="21.406" fill="#f7f7f7" opacity="0.063"/><circle cx="33.701" cy="33.701" r="21.384" fill="#efeff0" opacity="0.125"/><circle cx="33.335" cy="33.335" r="21.362" fill="#e7e8e8" opacity="0.188"/><circle cx="32.968" cy="32.968" r="21.339" fill="#dfe0e1" opacity="0.25"/><circle cx="32.602" cy="32.602" r="21.317" fill="#d7d8d9" opacity="0.313"/><circle cx="32.235" cy="32.235" r="21.295" fill="#cfd0d1" opacity="0.375"/><circle cx="31.869" cy="31.869" r="21.272" fill="#c7c8ca" opacity="0.438"/><circle cx="31.503" cy="31.503" r="21.25" fill="#c0c1c2" opacity="0.5"/><circle cx="31.136" cy="31.136" r="21.228" fill="#b8b9ba" opacity="0.563"/><circle cx="30.77" cy="30.77" r="21.205" fill="#b0b1b3" opacity="0.625"/><circle cx="30.404" cy="30.403" r="21.183" fill="#a8a9ab" opacity="0.688"/><circle cx="30.037" cy="30.037" r="21.161" fill="#a0a1a4" opacity="0.75"/><circle cx="29.671" cy="29.671" r="21.138" fill="#98999c" opacity="0.813"/><circle cx="29.304" cy="29.304" r="21.116" fill="#909294" opacity="0.875"/><circle cx="28.938" cy="28.938" r="21.094" fill="#888a8d" opacity="0.938"/><circle cx="28.572" cy="28.572" r="21.072" fill="#808285"/></g><circle cx="28.572" cy="28.572" r="21.429" fill="url(#linear-gradient-3)"/><path d="M28.572,46.429A17.857,17.857,0,1,1,46.429,28.572,17.878,17.878,0,0,1,28.572,46.429Z" fill="url(#linear-gradient-4)"/><g opacity="0.8" style="mix-blend-mode:multiply"><path d="M41.483,25.226a7.482,7.482,0,0,1-.379,1.332,7.844,7.844,0,0,1-1.165,1.964c-1.578,1.681-3.19,3.339-4.886,4.9a6.033,6.033,0,0,1-9.266-1.343l2.244-2.359a3.042,3.042,0,0,0,1.575,1.86,2.83,2.83,0,0,0,3.259-.347c1.025-.884,1.953-1.882,2.915-2.84.651-.649,1.323-1.283,1.921-1.979a3.049,3.049,0,0,0-4.3-4.288c-.55.467-1.037,1.008-1.567,1.5-.1.1-.3.209-.4.174a8.338,8.338,0,0,0-3.633-.37c.022-.075.022-.126.048-.151C28.927,22.2,30,21.116,31.088,20.054a5.892,5.892,0,0,1,3.355-1.636.6.6,0,0,0,.158-.074h1.449a.678.678,0,0,0,.159.073,6.116,6.116,0,0,1,5.136,4.8c.043.187.093.372.139.558Z" fill="#a7a9ac"/><path d="M18.3,34.644c.043-.171.091-.342.129-.514a5.844,5.844,0,0,1,1.522-2.93c1.577-1.6,3.127-3.232,4.778-4.755a6.066,6.066,0,0,1,9.344,1.475l-2.14,2.28a11.109,11.109,0,0,0-1.165-1.5,2.877,2.877,0,0,0-3.918-.007c-1.617,1.514-3.192,3.079-4.7,4.7a2.981,2.981,0,0,0,.153,4.172,3.034,3.034,0,0,0,4.147.128c.537-.46,1.013-.99,1.53-1.474a.484.484,0,0,1,.371-.144,8.336,8.336,0,0,0,3.633.369c-.022.075-.022.126-.047.151-1.088,1.088-2.166,2.185-3.271,3.255a5.854,5.854,0,0,1-3.321,1.606.6.6,0,0,0-.158.074H23.734a1.1,1.1,0,0,0-.2-.079A6.039,6.039,0,0,1,18.622,37.3c-.142-.39-.216-.805-.321-1.209Z" fill="#a7a9ac"/></g><path d="M40.857,23.8a7.482,7.482,0,0,1-.379,1.332,7.844,7.844,0,0,1-1.165,1.964c-1.578,1.681-3.19,3.339-4.886,4.9a6.033,6.033,0,0,1-9.266-1.343l2.244-2.359a3.042,3.042,0,0,0,1.575,1.86A2.83,2.83,0,0,0,32.24,29.8c1.025-.884,1.953-1.882,2.915-2.84.651-.649,1.323-1.283,1.921-1.979a3.049,3.049,0,0,0-4.3-4.288c-.55.467-1.037,1.008-1.567,1.5-.1.1-.3.209-.4.174A8.338,8.338,0,0,0,27.177,22c.022-.075.022-.126.048-.151,1.077-1.077,2.146-2.163,3.237-3.225a5.892,5.892,0,0,1,3.355-1.636.6.6,0,0,0,.158-.074h1.449a.678.678,0,0,0,.159.073,6.116,6.116,0,0,1,5.136,4.8c.043.187.093.372.139.558Z" fill="#fff"/><path d="M17.675,33.214c.043-.171.091-.342.129-.514a5.844,5.844,0,0,1,1.522-2.93c1.577-1.6,3.127-3.232,4.778-4.755a6.066,6.066,0,0,1,9.344,1.475l-2.14,2.28a11.109,11.109,0,0,0-1.165-1.5,2.877,2.877,0,0,0-3.918-.007c-1.617,1.514-3.192,3.079-4.7,4.7a2.981,2.981,0,0,0,.153,4.172,3.034,3.034,0,0,0,4.147.128c.537-.46,1.013-.99,1.53-1.474a.484.484,0,0,1,.371-.144,8.336,8.336,0,0,0,3.633.369c-.022.075-.022.126-.047.151-1.088,1.088-2.166,2.185-3.271,3.255a5.854,5.854,0,0,1-3.321,1.606.6.6,0,0,0-.158.074H23.108a1.1,1.1,0,0,0-.2-.079A6.039,6.039,0,0,1,18,35.872c-.142-.39-.216-.805-.321-1.209Z" fill="#fff"/></g></g></g></svg>