<svg xmlns="http://www.w3.org/2000/svg" xmlns:xlink="http://www.w3.org/1999/xlink" viewBox="0 0 60.873 60.873"><defs><linearGradient id="linear-gradient" y1="30.436" x2="60.873" y2="30.436" gradientUnits="userSpaceOnUse"><stop offset="0" stop-color="#fff"/><stop offset="1" stop-color="#d1d3d4"/></linearGradient><linearGradient id="linear-gradient-2" x1="1.522" y1="30.436" x2="59.351" y2="30.436" gradientUnits="userSpaceOnUse"><stop offset="0" stop-color="#d1d3d4"/><stop offset="1" stop-color="#fff"/></linearGradient><linearGradient id="linear-gradient-3" x1="7.609" y1="30.436" x2="53.264" y2="30.436" gradientUnits="userSpaceOnUse"><stop offset="0" stop-color="#00aeee"/><stop offset="1" stop-color="#0095da"/></linearGradient><linearGradient id="linear-gradient-4" x1="11.414" y1="30.436" x2="49.459" y2="30.436" gradientUnits="userSpaceOnUse"><stop offset="0" stop-color="#0095da"/><stop offset="1" stop-color="#00aeee"/></linearGradient></defs><title>2</title><g style="isolation:isolate"><g id="Layer_2" data-name="Layer 2"><g id="symbol_buttons" data-name="symbol buttons"><path d="M30.436,60.873A30.436,30.436,0,1,1,60.873,30.436,30.471,30.471,0,0,1,30.436,60.873Z" fill="url(#linear-gradient)"/><path d="M30.436,59.351A28.915,28.915,0,1,1,59.351,30.436,28.948,28.948,0,0,1,30.436,59.351Z" fill="url(#linear-gradient-2)"/><circle cx="30.436" cy="30.436" r="22.827" fill="url(#linear-gradient-3)"/><path d="M30.436,49.459A19.023,19.023,0,1,1,49.459,30.436,19.044,19.044,0,0,1,30.436,49.459Z" fill="url(#linear-gradient-4)"/><path d="M29.626,19.428a2.806,2.806,0,0,0-2.8,2.816L26.9,40.937a2.806,2.806,0,0,0,5.612-.02l-.068-18.694A2.806,2.806,0,0,0,29.626,19.428Z" fill="#a7a9ac" opacity="0.8" style="mix-blend-mode:multiply"/><path d="M19.841,31.532a2.806,2.806,0,0,0,2.806,2.806H41.341a2.806,2.806,0,0,0,0-5.612H22.647A2.806,2.806,0,0,0,19.841,31.532Z" fill="#a7a9ac" opacity="0.8" style="mix-blend-mode:multiply"/><path d="M18.346,30.037a2.806,2.806,0,0,0,2.806,2.806H39.846a2.806,2.806,0,0,0,0-5.612H21.152A2.806,2.806,0,0,0,18.346,30.037Z" fill="#fff"/><path d="M30.5,17.993a2.862,2.862,0,0,0-2.184,2.841l.068,18.51a2.862,2.862,0,0,0,2.2,2.825A2.809,2.809,0,0,0,34,39.416l-.068-18.694A2.809,2.809,0,0,0,30.5,17.993Z" fill="#fff"/></g></g></g></svg>