<svg xmlns="http://www.w3.org/2000/svg" xmlns:xlink="http://www.w3.org/1999/xlink" viewBox="0 0 66.042 66.042"><defs><linearGradient id="linear-gradient" y1="33.021" x2="66.042" y2="33.021" gradientUnits="userSpaceOnUse"><stop offset="0" stop-color="#fff"/><stop offset="1" stop-color="#d1d3d4"/></linearGradient><linearGradient id="linear-gradient-2" x1="1.651" y1="33.021" x2="64.391" y2="33.021" gradientUnits="userSpaceOnUse"><stop offset="0" stop-color="#d1d3d4"/><stop offset="1" stop-color="#fff"/></linearGradient><linearGradient id="linear-gradient-3" x1="8.255" y1="33.021" x2="57.787" y2="33.021" gradientUnits="userSpaceOnUse"><stop offset="0" stop-color="#00aeee"/><stop offset="1" stop-color="#0095da"/></linearGradient><linearGradient id="linear-gradient-4" x1="12.383" y1="33.021" x2="53.659" y2="33.021" gradientUnits="userSpaceOnUse"><stop offset="0" stop-color="#0095da"/><stop offset="1" stop-color="#00aeee"/></linearGradient></defs><title>Asset 49</title><g style="isolation:isolate"><g id="Layer_2" data-name="Layer 2"><g id="symbol_buttons" data-name="symbol buttons"><path d="M33.021,66.042A33.021,33.021,0,1,1,66.042,33.021,33.059,33.059,0,0,1,33.021,66.042Z" fill="url(#linear-gradient)"/><path d="M33.021,64.391a31.37,31.37,0,1,1,31.37-31.37A31.406,31.406,0,0,1,33.021,64.391Z" fill="url(#linear-gradient-2)"/><g style="mix-blend-mode:multiply"><circle cx="39.796" cy="39.796" r="24.766" fill="#fff" opacity="0"/><circle cx="39.373" cy="39.373" r="24.74" fill="#f7f7f7" opacity="0.063"/><circle cx="38.949" cy="38.949" r="24.714" fill="#efeff0" opacity="0.125"/><circle cx="38.526" cy="38.526" r="24.688" fill="#e7e8e8" opacity="0.188"/><circle cx="38.103" cy="38.102" r="24.663" fill="#dfe0e1" opacity="0.25"/><circle cx="37.679" cy="37.679" r="24.637" fill="#d7d8d9" opacity="0.313"/><circle cx="37.256" cy="37.256" r="24.611" fill="#cfd0d1" opacity="0.375"/><circle cx="36.832" cy="36.832" r="24.585" fill="#c7c8ca" opacity="0.438"/><circle cx="36.409" cy="36.409" r="24.559" fill="#c0c1c2" opacity="0.5"/><circle cx="35.985" cy="35.985" r="24.534" fill="#b8b9ba" opacity="0.563"/><circle cx="35.562" cy="35.562" r="24.508" fill="#b0b1b3" opacity="0.625"/><circle cx="35.138" cy="35.138" r="24.482" fill="#a8a9ab" opacity="0.688"/><circle cx="34.715" cy="34.715" r="24.456" fill="#a0a1a4" opacity="0.75"/><circle cx="34.292" cy="34.291" r="24.431" fill="#98999c" opacity="0.813"/><circle cx="33.868" cy="33.868" r="24.405" fill="#909294" opacity="0.875"/><circle cx="33.445" cy="33.445" r="24.379" fill="#888a8d" opacity="0.938"/><circle cx="33.021" cy="33.021" r="24.353" fill="#808285"/></g><circle cx="33.021" cy="33.021" r="24.766" fill="url(#linear-gradient-3)"/><path d="M33.021,53.659A20.638,20.638,0,1,1,53.659,33.021,20.662,20.662,0,0,1,33.021,53.659Z" fill="url(#linear-gradient-4)"/><path d="M28.2,46.321a1.444,1.444,0,0,1-1.432-1.485V23.708A1.444,1.444,0,0,1,28.2,22.223a1.55,1.55,0,0,1,.772.213L47.269,33a1.444,1.444,0,0,1,0,2.546l-18.3,10.564a1.549,1.549,0,0,1-.772.213Z" fill="#a7a9ac" opacity="0.8" style="mix-blend-mode:multiply"/><path d="M26.949,45.071a1.444,1.444,0,0,1-1.432-1.485V22.457a1.444,1.444,0,0,1,1.432-1.485,1.55,1.55,0,0,1,.772.213l18.3,10.564a1.444,1.444,0,0,1,0,2.546l-18.3,10.564a1.549,1.549,0,0,1-.772.213Z" fill="#fff"/></g></g></g></svg>