<svg xmlns="http://www.w3.org/2000/svg" xmlns:xlink="http://www.w3.org/1999/xlink" viewBox="0 0 65.749 65.749"><defs><linearGradient id="linear-gradient" y1="32.874" x2="65.749" y2="32.874" gradientUnits="userSpaceOnUse"><stop offset="0" stop-color="#fff"/><stop offset="1" stop-color="#d1d3d4"/></linearGradient><linearGradient id="linear-gradient-2" x1="1.644" y1="32.874" x2="64.105" y2="32.874" gradientUnits="userSpaceOnUse"><stop offset="0" stop-color="#d1d3d4"/><stop offset="1" stop-color="#fff"/></linearGradient><linearGradient id="linear-gradient-3" x1="8.219" y1="32.874" x2="57.53" y2="32.874" gradientUnits="userSpaceOnUse"><stop offset="0" stop-color="#00aeee"/><stop offset="1" stop-color="#0095da"/></linearGradient><linearGradient id="linear-gradient-4" x1="12.328" y1="32.874" x2="53.421" y2="32.874" gradientUnits="userSpaceOnUse"><stop offset="0" stop-color="#0095da"/><stop offset="1" stop-color="#00aeee"/></linearGradient></defs><title>12</title><g style="isolation:isolate"><g id="Layer_2" data-name="Layer 2"><g id="symbol_buttons" data-name="symbol buttons"><path d="M32.874,65.749A32.874,32.874,0,1,1,65.749,32.874,32.911,32.911,0,0,1,32.874,65.749Z" fill="url(#linear-gradient)"/><path d="M32.874,64.1A31.231,31.231,0,1,1,64.1,32.874,31.266,31.266,0,0,1,32.874,64.1Z" fill="url(#linear-gradient-2)"/><g style="mix-blend-mode:multiply"><circle cx="39.619" cy="39.619" r="24.656" fill="#fff" opacity="0"/><circle cx="39.198" cy="39.198" r="24.63" fill="#f7f7f7" opacity="0.063"/><circle cx="38.776" cy="38.776" r="24.604" fill="#efeff0" opacity="0.125"/><circle cx="38.355" cy="38.355" r="24.579" fill="#e7e8e8" opacity="0.188"/><circle cx="37.933" cy="37.933" r="24.553" fill="#dfe0e1" opacity="0.25"/><circle cx="37.511" cy="37.511" r="24.527" fill="#d7d8d9" opacity="0.313"/><circle cx="37.09" cy="37.09" r="24.502" fill="#cfd0d1" opacity="0.375"/><circle cx="36.668" cy="36.668" r="24.476" fill="#c7c8ca" opacity="0.438"/><circle cx="36.247" cy="36.247" r="24.45" fill="#c0c1c2" opacity="0.5"/><circle cx="35.825" cy="35.825" r="24.425" fill="#b8b9ba" opacity="0.563"/><circle cx="35.404" cy="35.404" r="24.399" fill="#b0b1b3" opacity="0.625"/><circle cx="34.982" cy="34.982" r="24.373" fill="#a8a9ab" opacity="0.688"/><circle cx="34.561" cy="34.56" r="24.348" fill="#a0a1a4" opacity="0.75"/><circle cx="34.139" cy="34.139" r="24.322" fill="#98999c" opacity="0.813"/><circle cx="33.717" cy="33.717" r="24.296" fill="#909294" opacity="0.875"/><circle cx="33.296" cy="33.296" r="24.27" fill="#888a8d" opacity="0.938"/><circle cx="32.874" cy="32.874" r="24.245" fill="#808285"/></g><circle cx="32.874" cy="32.874" r="24.656" fill="url(#linear-gradient-3)"/><path d="M32.874,53.421A20.546,20.546,0,1,1,53.421,32.874,20.57,20.57,0,0,1,32.874,53.421Z" fill="url(#linear-gradient-4)"/><rect x="23.608" y="23.608" width="21.096" height="21.096" rx="2.813" ry="2.813" fill="#a7a9ac" opacity="0.8" style="mix-blend-mode:multiply"/><rect x="22.29" y="22.29" width="21.096" height="21.096" rx="2.813" ry="2.813" fill="#fff"/></g></g></g></svg>