<svg xmlns="http://www.w3.org/2000/svg" xmlns:xlink="http://www.w3.org/1999/xlink" viewBox="0 0 60.873 60.873"><defs><linearGradient id="linear-gradient" y1="30.436" x2="60.873" y2="30.436" gradientUnits="userSpaceOnUse"><stop offset="0" stop-color="#fff"/><stop offset="1" stop-color="#d1d3d4"/></linearGradient><linearGradient id="linear-gradient-2" x1="1.522" y1="30.436" x2="59.351" y2="30.436" gradientUnits="userSpaceOnUse"><stop offset="0" stop-color="#d1d3d4"/><stop offset="1" stop-color="#fff"/></linearGradient><linearGradient id="linear-gradient-3" x1="7.609" y1="30.436" x2="53.264" y2="30.436" gradientUnits="userSpaceOnUse"><stop offset="0" stop-color="#00aeee"/><stop offset="1" stop-color="#0095da"/></linearGradient><linearGradient id="linear-gradient-4" x1="11.414" y1="30.436" x2="49.459" y2="30.436" gradientUnits="userSpaceOnUse"><stop offset="0" stop-color="#0095da"/><stop offset="1" stop-color="#00aeee"/></linearGradient></defs><title>9</title><g style="isolation:isolate"><g id="Layer_2" data-name="Layer 2"><g id="symbol_buttons" data-name="symbol buttons"><path d="M30.436,60.873A30.436,30.436,0,1,1,60.873,30.436,30.471,30.471,0,0,1,30.436,60.873Z" fill="url(#linear-gradient)"/><path d="M30.436,59.351A28.915,28.915,0,1,1,59.351,30.436,28.948,28.948,0,0,1,30.436,59.351Z" fill="url(#linear-gradient-2)"/><g style="mix-blend-mode:multiply"><circle cx="36.681" cy="36.681" r="22.827" fill="#fff" opacity="0"/><circle cx="36.291" cy="36.291" r="22.804" fill="#f7f7f7" opacity="0.063"/><circle cx="35.901" cy="35.901" r="22.78" fill="#efeff0" opacity="0.125"/><circle cx="35.51" cy="35.51" r="22.756" fill="#e7e8e8" opacity="0.188"/><circle cx="35.12" cy="35.12" r="22.732" fill="#dfe0e1" opacity="0.25"/><circle cx="34.73" cy="34.73" r="22.708" fill="#d7d8d9" opacity="0.313"/><circle cx="34.339" cy="34.339" r="22.685" fill="#cfd0d1" opacity="0.375"/><circle cx="33.949" cy="33.949" r="22.661" fill="#c7c8ca" opacity="0.438"/><circle cx="33.559" cy="33.559" r="22.637" fill="#c0c1c2" opacity="0.5"/><circle cx="33.169" cy="33.169" r="22.613" fill="#b8b9ba" opacity="0.563"/><circle cx="32.778" cy="32.778" r="22.59" fill="#b0b1b3" opacity="0.625"/><circle cx="32.388" cy="32.388" r="22.566" fill="#a8a9ab" opacity="0.688"/><circle cx="31.998" cy="31.998" r="22.542" fill="#a0a1a4" opacity="0.75"/><circle cx="31.607" cy="31.607" r="22.518" fill="#98999c" opacity="0.813"/><circle cx="31.217" cy="31.217" r="22.494" fill="#909294" opacity="0.875"/><circle cx="30.827" cy="30.827" r="22.471" fill="#888a8d" opacity="0.938"/><circle cx="30.436" cy="30.436" r="22.447" fill="#808285"/></g><circle cx="30.436" cy="30.436" r="22.827" fill="url(#linear-gradient-3)"/><path d="M30.436,49.459A19.023,19.023,0,1,1,49.459,30.436,19.044,19.044,0,0,1,30.436,49.459Z" fill="url(#linear-gradient-4)"/><path d="M41.485,21.811A13.811,13.811,0,0,0,17.9,31.878h-2.03a.509.509,0,0,0-.523.5h0a.546.546,0,0,0,.075.272L19.14,39.1a.509.509,0,0,0,.9,0l3.723-6.449a.546.546,0,0,0,.075-.272.509.509,0,0,0-.523-.5H21.344a10.373,10.373,0,1,1,7.416,9.654,1.982,1.982,0,0,0-2.368.928,1.57,1.57,0,0,0,.839,2.211A13.825,13.825,0,0,0,41.485,21.811Z" fill="#a7a9ac" opacity="0.8" style="mix-blend-mode:multiply"/><path d="M40.333,20.658a13.811,13.811,0,0,0-23.59,10.066h-2.03a.509.509,0,0,0-.523.5h0a.546.546,0,0,0,.075.272l3.723,6.449a.509.509,0,0,0,.9,0L22.607,31.5a.546.546,0,0,0,.075-.272.509.509,0,0,0-.523-.5H20.191a10.373,10.373,0,1,1,7.416,9.654,1.982,1.982,0,0,0-2.368.928,1.57,1.57,0,0,0,.839,2.211A13.825,13.825,0,0,0,40.333,20.658Z" fill="#fff"/></g></g></g></svg>